<svg xmlns="http://www.w3.org/2000/svg" viewBox="0 0 512 512">
  <rect width="512" height="512" rx="96" fill="#0F1117"/>
  <path d="M196 224 V176 a60 60 0 0 1 120 0 V224" stroke="#16D9A8" stroke-width="26" fill="none" stroke-linecap="round"/>
  <rect x="156" y="224" width="200" height="180" rx="22" fill="#16D9A8"/>
  <circle cx="256" cy="304" r="20" fill="#0F1117"/>
  <rect x="246" y="316" width="20" height="40" rx="6" fill="#0F1117"/>
  <g fill="none" stroke="#16D9A8" stroke-width="10">
    <ellipse cx="80" cy="432" rx="14" ry="22" transform="rotate(-45 80 432)"/>
    <ellipse cx="130" cy="382" rx="14" ry="22" transform="rotate(-45 130 382)"/>
    <ellipse cx="180" cy="332" rx="14" ry="22" transform="rotate(-45 180 332)"/>
    <ellipse cx="332" cy="180" rx="14" ry="22" transform="rotate(-45 332 180)"/>
    <ellipse cx="382" cy="130" rx="14" ry="22" transform="rotate(-45 382 130)"/>
    <ellipse cx="432" cy="80" rx="14" ry="22" transform="rotate(-45 432 80)"/>
    <ellipse cx="80" cy="80" rx="14" ry="22" transform="rotate(45 80 80)"/>
    <ellipse cx="130" cy="130" rx="14" ry="22" transform="rotate(45 130 130)"/>
    <ellipse cx="180" cy="180" rx="14" ry="22" transform="rotate(45 180 180)"/>
    <ellipse cx="332" cy="332" rx="14" ry="22" transform="rotate(45 332 332)"/>
    <ellipse cx="382" cy="382" rx="14" ry="22" transform="rotate(45 382 382)"/>
    <ellipse cx="432" cy="432" rx="14" ry="22" transform="rotate(45 432 432)"/>
  </g>
</svg>
